<svg version="1" xmlns="http://www.w3.org/2000/svg" width="981.333" height="981.333" viewBox="0 0 736.000000 736.000000"><path d="M228.8 107.6c-.3.3-3.2.7-6.4 1-3.3.2-8.1.9-10.9 1.4-2.7.5-6.2 1.2-7.7 1.4-8.6 1.4-31.8 8.2-39.3 11.5-1.1.5-3.8 1.7-6 2.6-9.8 4.2-29.8 14.7-38 19.9-4.9 3.1-9.9 6.2-11 6.9-1.1.6-2.2 1.4-2.5 1.7-.3.3-4.5 3.7-9.5 7.5-4.9 3.9-9.7 7.7-10.6 8.5-8.2 7.7-16.3 15.7-20.7 20.6-6.6 7.5-18.8 22.8-21 26.6-.9 1.5-2 2.8-2.4 2.8-.4 0-.8.4-.8.9s-2.5 4.6-5.5 9.2-5.5 8.9-5.5 9.6c0 .7-.4 1.3-.8 1.3-.9 0-11.2 21.1-11.2 22.9 0 .6-.4 1.1-.9 1.1s-1.1 1-1.4 2.2c-.3 1.3-2.6 8-5 15-4 11.2-6.4 20.2-5.6 21 .1.2-.3 1.3-.9 2.5-.7 1.2-1.5 5.5-1.9 9.5l-.6 7.3 5.9-5.1c3.2-2.7 8.8-7.2 12.4-10 3.6-2.7 6.7-5.2 6.8-5.7.2-.4.8-.7 1.3-.7.6 0 2.7-1.3 4.7-2.9 2-1.7 7.8-5.5 12.7-8.5 5-3.1 9.5-5.9 10.1-6.3 1.1-.8 2.9-1.9 10.9-6.5 11.2-6.4 37.9-19.1 48.8-23.2 3.4-1.3 7.6-3 9.2-3.6 1.7-.7 3.5-1.4 4-1.6.6-.1 5.1-1.6 10.1-3.3 14.1-4.7 40.3-11.1 54.9-13.5 1.7-.3 4.8-.8 7-1.1 2.2-.4 5.6-.8 7.5-1 8.5-.9 16.9-1.7 21.5-2 6.8-.5 35.2-.6 39.5-.1 11.4 1.2 16.4 1.8 18.3 2.2 1.2.2 4.2.7 6.6 1 2.5.3 4.8.7 5.1.9.4.2 4.2 1.1 8.6 2 4.3.9 8.6 2.1 9.5 2.5.8.5 2.6 1.1 4 1.3 1.3.2 3.1.7 3.9 1 .8.3 6 2.1 11.5 4 14.2 4.9 19.9 7.1 20.5 7.8.3.4 1.6 1 3 1.4 5.9 1.7 38.5 17.9 63.5 31.5 30 16.3 50.4 26.8 63.5 32.8 2.5 1.1 8 3.6 12.3 5.6 4.2 1.9 7.7 3.3 7.7 3.1 0-.2 2.4.7 5.3 1.9 11.2 5 39.1 12.9 50.2 14.2 2.8.4 5.3.8 5.6 1 1.4.8 18.1 1.8 29.4 1.8 11 0 22.9-.8 28-1.8 1.1-.2 4-.7 6.5-1.1 6.6-1.1 8-1.4 10-2 1-.3 2.8-.8 3.9-1 6.6-1.5 15.2-4.1 22.6-6.9 3.9-1.5 7.5-2.8 8-3 1.8-.5 6.8-2.6 12.9-5.5 3.4-1.5 6.5-2.8 7-2.9.5 0 1.2-.4 1.5-.9.3-.5 2.8-2.2 5.4-3.7 7.9-4.5 16.8-11.1 23-16.9 5.7-5.4 7.2-7.6 4-5.8-8.4 4.4-17 5.6-38.8 5.6-15.6 0-19.2-.3-29.5-1.9-1.9-.3-4.9-.8-6.7-1-1.8-.3-4-.7-5-1-1-.3-2.9-.7-4.3-1-19.9-3.6-51.8-15.8-68.5-26.2-2.2-1.3-4.7-2.7-5.5-3.1-4.6-2-32.7-21.5-45-31.2-3-2.4-4.2-3.3-15-11.6-4.7-3.5-8.9-6.8-9.5-7.3-.5-.4-2.6-1.9-4.5-3.2-1.9-1.4-3.7-2.7-4-3-.8-.9-12-9.3-21-15.8-4.7-3.4-9-6.6-9.6-7-.5-.5-7.7-5.4-16-10.9-13.3-8.9-19-12.5-24.6-15.8-.9-.6-7.7-4.6-15-8.9-7.3-4.3-16.9-9.7-21.3-12-4.4-2.2-8.1-4.4-8.3-4.8-.2-.4-1.1-.8-2.1-.8-.9 0-2.1-.4-2.6-.8-1.3-1.1-20-8.7-20-8.2 0 .1-2.3-.7-5-1.8-4.6-1.8-24.2-7-29-7.7-1.1-.1-3.4-.5-5.1-.9-4.7-.9-12.5-1.8-26.1-3.2-7.1-.7-59.9-1.4-60.5-.8zM109.5 332.4c-4.3 2.3-18.9 10.5-21.7 12.1-12 7-20.2 12.1-29.6 18.4-6.3 4.2-12.1 8-13 8.6-2.1 1.3-3.9 2.7-8.8 6.7-2.2 1.8-5.5 4.4-7.3 5.8-3.4 2.5-21.6 20.3-25.9 25.3l-2.3 2.6 1.6 8.8c.9 4.8 2.3 11.5 3.2 14.8.8 3.3 1.6 6.4 1.7 7 1.1 5.3 6.8 22.1 10.3 30.5 5.6 13.3 20 39.9 24.9 46 .7.8 4.1 5.3 7.6 10 8.5 11.4 10.5 13.7 23.3 26.6 10.3 10.3 28.7 25.8 33.8 28.5 1.2.7 2.4 1.5 2.7 1.9.9 1.3 25.4 15.5 32.5 18.9 12.3 5.8 37 15 44.5 16.6.8.2 3.8.9 6.5 1.5 2.8.6 5.9 1.4 7 1.6 3.7.8 20.9 3.6 25 4.1 7.7.9 44.1 1.1 50 .2 3.3-.4 8.7-1.1 12-1.5 3.3-.3 6.9-.8 8-1.1 1.1-.2 3.1-.6 4.5-.9 1.4-.2 3.6-.7 5-1 1.4-.3 3.6-.8 5-1.1 4.2-.8 5.5-1.1 5.5-1.3 0-.2.8-.4 7.3-2 9.1-2.2 27.4-9.5 42.2-16.7 8.5-4.2 15.7-7.9 16-8.3.3-.3 4-2.8 8.4-5.4 6.7-4.2 19.5-13.7 28.5-21.1 5.3-4.5 21.1-20.5 27.1-27.6 8.9-10.5 9.2-10.8 14.9-19 2.8-4.1 5.4-7.9 5.8-8.4 1.1-1.4 7.5-12.4 9.3-16 .8-1.7 1.7-3.2 2-3.5 2.3-2.1 16.7-36.9 18.5-44.7.2-1 1.5-5.9 2.9-10.8 1.3-5 2.7-10.6 3-12.5.3-1.9.8-4.6 1.1-6 .3-1.4.8-4.1 1-6 .2-1.9.7-5.1 1-7 .3-1.9.7-6.9 1-11l.4-7.6-4.7-1.3c-14.2-4.1-58.6-23.1-88.5-37.8-10.3-5.1-19-9.3-19.2-9.3-.5 0 .1 5.2 1.4 12.5.5 2.7.8 11.3.5 19-.3 13.8-.6 16.6-2 23.5-1 5.1-1 5.1-2.5 10-.7 2.5-1.3 4.7-1.4 5-.3 1.6-3 9-4.3 12-.9 1.9-1.6 3.7-1.7 4 0 .3-1.6 3.4-3.4 7-9.2 17.9-24.3 36-40.1 48-1.8 1.4-3.9 3.1-4.6 3.7-.7.7-1.5 1.3-1.8 1.3-.3 0-2.5 1.4-5 3-9.9 6.7-29.8 15.5-39.5 17.5-.9.2-2.8.8-4.2 1.3-1.5.6-2.9.9-3.2.6-.2-.2-1.6 0-3.1.5-3.8 1.5-14.5 2.4-27.6 2.5-18 0-29.1-1.7-45.5-7.2-9.2-3-30.1-13.2-33.3-16.2-.9-.9-2.5-2.1-3.3-2.6-3.5-2-10.7-8.2-18.1-15.5-18.1-18.1-31.2-41-37.3-65.3-3.7-14.9-4.5-21.4-4.4-37.6.1-15.2.5-18.7 3.5-30.4.8-3.2 1.3-6 1.2-6.2-.2-.1-2.1.8-4.3 2z"/></svg>