<?xml version="1.0" encoding="UTF-8" standalone="no"?>
<!-- Generator: Adobe Illustrator 22.0.1, SVG Export Plug-In . SVG Version: 6.00 Build 0)  -->

<svg
   xmlns:dc="http://purl.org/dc/elements/1.1/"
   xmlns:cc="http://creativecommons.org/ns#"
   xmlns:rdf="http://www.w3.org/1999/02/22-rdf-syntax-ns#"
   xmlns:svg="http://www.w3.org/2000/svg"
   xmlns="http://www.w3.org/2000/svg"
   xmlns:sodipodi="http://sodipodi.sourceforge.net/DTD/sodipodi-0.dtd"
   xmlns:inkscape="http://www.inkscape.org/namespaces/inkscape"
   version="1.1"
   id="Layer_1"
   x="0px"
   y="0px"
   viewBox="0 0 483 112.4"
   xml:space="preserve"
   sodipodi:docname="iss-schrole-logo.svg"
   width="483"
   height="112.4"
   inkscape:version="0.92.2 (unknown)"><metadata
     id="metadata3817"><rdf:RDF><cc:Work
         rdf:about=""><dc:format>image/svg+xml</dc:format><dc:type
           rdf:resource="http://purl.org/dc/dcmitype/StillImage" /><dc:title></dc:title></cc:Work></rdf:RDF></metadata><defs
     id="defs3815"><clipPath
       clipPathUnits="userSpaceOnUse"
       id="clipPath4630"><rect
         style="fill:#ffffff;fill-opacity:0.35499998;stroke:none"
         id="rect4632"
         width="500.37952"
         height="136.05313"
         x="-0.56925994"
         y="89.943077" /></clipPath><clipPath
       clipPathUnits="userSpaceOnUse"
       id="clipPath4634"><rect
         style="fill:#ffffff;fill-opacity:0.35499998;stroke:none"
         id="rect4636"
         width="500.37952"
         height="136.05313"
         x="-0.56925994"
         y="89.943077" /></clipPath><clipPath
       clipPathUnits="userSpaceOnUse"
       id="clipPath4638"><rect
         style="fill:#ffffff;fill-opacity:0.35499998;stroke:none"
         id="rect4640"
         width="500.37952"
         height="136.05313"
         x="-0.56925994"
         y="89.943077" /></clipPath><clipPath
       clipPathUnits="userSpaceOnUse"
       id="clipPath4642"><rect
         style="fill:#ffffff;fill-opacity:0.35499998;stroke:none"
         id="rect4644"
         width="500.37952"
         height="136.05313"
         x="-0.56925994"
         y="89.943077" /></clipPath><clipPath
       clipPathUnits="userSpaceOnUse"
       id="clipPath4646"><rect
         style="fill:#ffffff;fill-opacity:0.35499998;stroke:none"
         id="rect4648"
         width="500.37952"
         height="136.05313"
         x="-0.56925994"
         y="89.943077" /></clipPath></defs><sodipodi:namedview
     pagecolor="#ffffff"
     bordercolor="#666666"
     borderopacity="1"
     objecttolerance="10"
     gridtolerance="10"
     guidetolerance="10"
     inkscape:pageopacity="0"
     inkscape:pageshadow="2"
     inkscape:window-width="1299"
     inkscape:window-height="717"
     id="namedview3813"
     showgrid="false"
     inkscape:pagecheckerboard="true"
     inkscape:zoom="1.7566667"
     inkscape:cx="239.8"
     inkscape:cy="57.399998"
     inkscape:window-x="67"
     inkscape:window-y="27"
     inkscape:window-maximized="1"
     inkscape:current-layer="Layer_1"
     fit-margin-top="0"
     fit-margin-left="0"
     fit-margin-right="0"
     fit-margin-bottom="0" /><style
     type="text/css"
     id="style3778">
	.st0{fill:#FFFFFF;}
</style><path
     class="st0"
     d="m 136.1,174.8 c 0,18.3 12.5,32.6 30.5,32.6 6.6,0 19.9,-1.9 19.9,-10.5 0,-2 -1.9,-6 -5.8,-6 -3.6,0 -6.6,3.7 -14.1,3.7 -10.9,0 -16.7,-9 -16.7,-19.6 0,-10.8 5.7,-20.1 16.7,-20.1 7.4,0 9.9,3.1 13.6,3.1 3.3,0 5.5,-2.7 5.5,-5.9 0,-7.8 -12.6,-9.9 -19,-9.9 -18.2,0 -30.6,14.2 -30.6,32.6 z m 81.2,32.6 c -18,0 -30.5,-14.3 -30.5,-32.6 0,-18.4 12.4,-32.6 30.5,-32.6 17.8,0 30.5,14.6 30.5,32.6 0,18.4 -12.3,32.6 -30.5,32.6 z m 0,-53 c -11.1,0 -16.7,9.7 -16.7,20.4 0,10.8 5.4,20.4 16.7,20.4 11.3,0 16.7,-9.6 16.7,-20.4 0,-10.7 -5.6,-20.4 -16.7,-20.4 z m 130.2,-4.7 V 200 c 0,4.4 -2.8,6.9 -6.6,6.9 -1.7,0 -4.3,-1.3 -5.6,-2.9 L 307.2,167 H 307 v 33 c 0,4.4 -2.8,6.9 -6.6,6.9 v 0 0 c 0,0 0,0 0,0 -2.5,0 -4.5,-1.1 -5.7,-3.1 l -28,-36.9 h -0.2 v 33 c 0,4.4 -2.8,6.9 -6.6,6.9 -3.8,0 -6.6,-2.5 -6.6,-6.9 v -50.3 c 0,-4.4 2.8,-6.9 6.6,-6.9 1.7,0 4.4,1.3 5.6,2.9 l 28.1,37.5 h 0.2 v -33.5 c 0,-4.4 2.8,-6.9 6.6,-6.9 v 0 0 c 0,0 0,0 0,0 2.5,0 4.5,1.1 5.7,3.1 l 28,37.3 h 0.2 v -33.5 c 0,-4.4 2.8,-6.9 6.6,-6.9 3.8,0 6.6,2.5 6.6,7 z m 47.1,50.5 c 0,3.4 -2.7,6.1 -6.1,6.1 h -4.1 -22.9 -0.7 c -3.4,0 -6.1,-2.7 -6.1,-6.1 0,-0.1 0,-0.2 0,-0.3 0,-0.1 0,-0.2 0,-0.3 V 151 c 0,-0.3 0,-0.6 0.1,-1 0,-0.2 -0.1,-0.4 -0.1,-0.6 0,-3.4 2.7,-6.1 6.1,-6.1 h 0.8 22 4.9 c 3.4,0 6.1,2.7 6.1,6.1 0,3.4 -2.7,6.1 -6.1,6.1 H 383.6 368 v 12.9 h 14.5 c 4.3,0 6.5,3 6.5,6.1 0,3 -2.2,6.1 -6.5,6.1 H 368 v 13.5 h 20.5 c 3.4,0 6.1,2.8 6.1,6.1 z m 0,-25.4 c 0,18.3 12.5,32.6 30.5,32.6 6.6,0 19.9,-1.9 19.9,-10.5 0,-2 -1.9,-6 -5.8,-6 -3.6,0 -6.6,3.7 -14.1,3.7 -10.9,0 -16.7,-9 -16.7,-19.6 0,-10.8 5.7,-20.1 16.7,-20.1 7.4,0 9.9,3.1 13.6,3.1 3.3,0 5.5,-2.7 5.5,-5.9 0,-7.8 -12.6,-9.9 -19,-9.9 -18.2,0 -30.6,14.2 -30.6,32.6 z m 69.7,25.2 c 0,4.4 2.8,6.9 6.6,6.9 3.8,0 6.6,-2.5 6.6,-6.9 v -44.5 h 9.7 c 4.3,0 6,-3.1 6,-6.1 0,-3.1 -2.2,-6.1 -6,-6.1 h -32.6 c -3.8,0 -6,3 -6,6.1 0,3 1.8,6.1 6,6.1 h 9.7 z"
     id="path3780"
     clip-path="url(#clipPath4646)"
     inkscape:connector-curvature="0"
     style="fill:#ffffff"
     transform="translate(-10.2,-95)" /><g
     id="g3800"
     clip-path="url(#clipPath4642)"
     transform="translate(-10.2,-95)"><path
       class="st0"
       d="m 195.7,119.3 c 0.1,2.7 1.8,3.6 4.4,3.6 1.8,0 3.7,-0.7 3.7,-2.4 0,-2.1 -3.3,-2.4 -6.7,-3.4 -3.3,-0.9 -6.8,-2.4 -6.8,-6.7 0,-5.1 5.1,-7.1 9.5,-7.1 4.6,0 9.3,2.3 9.3,7.5 H 203 c 0.1,-2.1 -1.9,-2.8 -3.8,-2.8 -1.3,0 -2.9,0.5 -2.9,2 0,1.8 3.4,2.1 6.8,3.1 3.4,0.9 6.8,2.5 6.8,6.7 0,5.9 -5,7.8 -10.1,7.8 -5.4,0 -10.1,-2.3 -10.1,-8.3 z"
       id="path3782"
       inkscape:connector-curvature="0"
       style="fill:#ffffff" /><path
       class="st0"
       d="m 223,116.4 c 0,-1.4 -1.3,-2.4 -2.7,-2.4 -3.1,0 -3.6,2.6 -3.6,5 0,2.2 0.9,4.4 3.3,4.4 1.9,0 2.9,-1.1 3.2,-2.9 h 5.4 c -0.5,4.5 -4,7.1 -8.5,7.1 -5.1,0 -8.9,-3.5 -8.9,-8.7 0,-5.4 3.4,-9.2 8.9,-9.2 4.2,0 8,2.2 8.4,6.7 z"
       id="path3784"
       inkscape:connector-curvature="0"
       style="fill:#ffffff" /><path
       class="st0"
       d="m 229.7,103.3 h 5.8 v 9 h 0.1 c 0.9,-1.8 3.3,-2.9 5.4,-2.9 5.9,0 6.4,4.3 6.4,6.8 v 11.3 h -5.8 V 119 c 0,-2.4 0.3,-4.9 -2.9,-4.9 -2.2,0 -3.1,1.8 -3.1,3.8 v 9.6 h -5.8 v -24.2 z"
       id="path3786"
       inkscape:connector-curvature="0"
       style="fill:#ffffff" /><path
       class="st0"
       d="m 248.4,110 h 5.6 v 3.1 h 0.1 c 0.8,-2.2 2.8,-3.4 5.3,-3.4 0.4,0 0.9,0 1.4,0.1 v 5.3 c -0.7,-0.2 -1.4,-0.3 -2.2,-0.3 -2.8,0 -4.3,2 -4.3,4.2 v 8.7 h -5.8 V 110 Z"
       id="path3788"
       inkscape:connector-curvature="0"
       style="fill:#ffffff" /><path
       class="st0"
       d="m 269.7,109.7 c 5.3,0 8.9,3.9 8.9,9 0,5.1 -3.7,8.9 -8.9,8.9 -5.3,0 -8.9,-3.9 -8.9,-8.9 0,-5.2 3.6,-9 8.9,-9 z m 0,13.6 c 2.6,0 3.4,-2.5 3.4,-4.7 0,-2.2 -0.8,-4.7 -3.4,-4.7 -2.6,0 -3.4,2.6 -3.4,4.7 0,2.1 0.8,4.7 3.4,4.7 z"
       id="path3790"
       inkscape:connector-curvature="0"
       style="fill:#ffffff" /><path
       class="st0"
       d="m 292.7,120 c 0.1,2.3 1.4,3.9 3.8,3.9 1.3,0 2.6,-0.6 3.2,-1.9 h 5.2 c -1,3.9 -4.6,5.6 -8.4,5.6 -5.5,0 -9.3,-3.3 -9.3,-9 0,-5.2 4.1,-8.9 9.1,-8.9 6.1,0 9.1,4.6 8.8,10.3 z m 6.9,-3.1 c -0.1,-1.9 -1.4,-3.5 -3.3,-3.5 -2,0 -3.3,1.4 -3.6,3.5 z"
       id="path3792"
       inkscape:connector-curvature="0"
       style="fill:#ffffff" /><path
       class="st0"
       d="m 280.1,95 v 32.6 h 5.8 V 95 Z m 4.9,13.1 h -4 v -6.7 h 3.9 v 6.7 z"
       id="path3794"
       inkscape:connector-curvature="0"
       style="fill:#ffffff" /><polygon
       class="st0"
       points="302.3,105.3 302.3,107.7 302.8,107.7 302.8,106 302.9,106 303.5,107.7 303.9,107.7 304.5,106 304.6,106 304.6,107.7 305.1,107.7 305.1,105.3 304.3,105.3 303.7,106.9 303.1,105.3 "
       id="polygon3796"
       style="fill:#ffffff" /><polygon
       class="st0"
       points="300.4,107.7 301,107.7 301,105.7 301.7,105.7 301.7,105.3 299.7,105.3 299.7,105.7 300.4,105.7 "
       id="polygon3798"
       style="fill:#ffffff" /></g><g
     id="g3808"
     clip-path="url(#clipPath4638)"
     transform="translate(-10.2,-95)"><path
       class="st0"
       d="m 157,107 c 0.3,-1.4 0.5,-2.8 0.8,-4.3 -1.7,-0.9 -3.4,-2.2 -5.5,-2.3 -2.8,-0.1 -5.1,1.5 -6.1,4.3 -0.9,2.4 -0.1,5.2 2.2,6.8 1.8,1.3 3.9,2.3 5.9,3.5 0.5,0.3 0.9,0.5 1.4,0.8 0.9,0.6 1.1,1.5 0.7,2.5 -0.4,0.9 -1.5,1.4 -2.4,0.9 -3,-1.7 -6.2,-3.3 -8.8,-5.5 -3.8,-3.3 -4.1,-8.5 -1.4,-12.6 2.9,-4.2 7.7,-5.7 12.4,-3.6 1.1,0.5 2.2,1.1 3.3,1.7 0.5,0.3 0.9,0.3 1.4,-0.1 3.2,-2.7 6.9,-3 10.6,-1.4 1.8,0.8 3.4,1.8 5.1,2.7 1.1,0.6 1.4,1.7 0.8,2.6 -0.5,0.9 -1.6,1.3 -2.7,0.7 -1.5,-0.8 -3,-1.6 -4.5,-2.4 -3.2,-1.6 -6.3,-0.8 -8.2,2.1 -1.9,2.8 -1.1,6.5 1.8,8.5 1.6,1.1 3.3,1.9 4.9,2.9 1.3,0.7 1.6,1.8 1,2.9 -0.6,1 -1.6,1.2 -2.9,0.5 -0.6,-0.3 -1.2,-0.7 -1.8,-1 -0.3,1.3 -0.6,2.6 -0.9,3.9 0,0.2 0,0.5 0.1,0.5 2,1.1 3.9,2.5 6.4,2.2 2.8,-0.4 4.5,-2.2 5.3,-4.8 0.7,-2.3 -0.4,-5 -2.6,-6.5 -1.8,-1.2 -3.8,-2.2 -5.8,-3.4 -0.5,-0.3 -1,-0.5 -1.5,-0.9 -0.7,-0.6 -0.9,-1.5 -0.5,-2.3 0.5,-0.8 1.3,-1.4 2.2,-0.9 3.4,1.9 7.3,3.2 9.9,6.4 2.5,3.1 3,6.6 1.3,10.2 -1.7,3.7 -4.7,5.9 -8.9,6 -2.5,0.1 -4.8,-0.9 -6.8,-2.2 -1,-0.6 -1.7,-0.7 -2.8,0.2 -3.2,2.5 -6.8,2.5 -10.4,0.8 -1.6,-0.7 -3.1,-1.7 -4.7,-2.5 -1.2,-0.7 -1.5,-1.7 -0.9,-2.7 0.6,-1 1.6,-1.3 2.8,-0.7 1.6,0.8 3.1,1.8 4.8,2.6 4.4,2 9.1,-1.3 8.8,-6 -0.2,-2.4 -1.5,-4 -3.5,-5.2 -1.4,-0.8 -2.9,-1.6 -4.3,-2.4 -1.2,-0.7 -1.5,-1.7 -0.9,-2.8 0.6,-1 1.6,-1.2 2.8,-0.6 0.7,0.2 1.3,0.6 2.1,0.9 -0.1,0.1 0,0 0,0 z"
       id="path3802"
       inkscape:connector-curvature="0"
       style="fill:#ffffff" /><path
       class="st0"
       d="m 136.1,111 c 0,-1.5 0,-3.1 0,-4.6 0,-1.4 0.7,-2.2 1.9,-2.2 1.3,0 1.9,0.7 1.9,2.2 0,2.8 -0.1,5.6 0,8.4 0,0.7 0.4,1.5 0.9,2 0.8,0.9 0.9,2 0.3,2.8 -0.7,0.8 -1.7,0.9 -2.7,0.2 -1.6,-1 -2.3,-2.6 -2.3,-4.4 0,-1.5 0,-3 0,-4.4 z"
       id="path3804"
       inkscape:connector-curvature="0"
       style="fill:#ffffff" /><path
       class="st0"
       d="m 140.2,99.4 c -0.2,1.1 -0.3,2 -1.4,2.5 -1,0.4 -1.8,0.2 -2.4,-0.7 -0.7,-0.9 -0.5,-2.8 0.3,-3.6 0.8,-0.7 1.7,-0.9 2.4,-0.2 0.6,0.6 0.8,1.4 1.1,2 z"
       id="path3806"
       inkscape:connector-curvature="0"
       style="fill:#ffffff" /></g><path
     class="st0"
     d="m 73.9,153.8 c -7.9,0 -14.2,-6.5 -13.9,-14.5 0.3,-7.3 6.4,-13.2 13.6,-13.4 3.9,-0.1 7.5,1.5 10,4 0.9,0.9 2.4,0.3 2.4,-0.9 V 97.3 c -3.1,-0.6 -6.3,-0.9 -9.5,-0.8 -23.5,0.6 -42.4,20.3 -42.2,43.9 0.3,23.7 19.6,42.9 43.4,42.9 2.8,0 5.6,-0.3 8.2,-0.8 v -31.7 c 0,-1.2 -1.5,-1.8 -2.4,-1 -2.4,2.5 -5.8,4 -9.6,4 z M 92,98.9 v 29.5 0 c 0,15.4 -12.4,5.6 -12.4,5.6 v 0 c -1.4,-1.5 -3.5,-2.4 -5.7,-2.4 -4.4,0 -8,3.6 -8,8 0,4.4 3.6,8 8,8 2.2,0 4.2,-0.9 5.7,-2.4 v 0 c 0,0 12.4,-9.3 12.4,5.6 v 0 30 c 16.9,-5.9 29.1,-22 29.1,-41 0,-18.8 -12.2,-35 -29.1,-40.9 z M 12.9,204.7 v 0 c -3.6,-3.6 -3.6,-9.5 0,-13.1 l 18.3,-18.3 c 3.6,-3.6 9.5,-3.6 13.1,0 v 0 c 3.6,3.6 3.6,9.5 0,13.1 L 26,204.7 c -3.6,3.6 -9.5,3.6 -13.1,0 z"
     id="path3810"
     clip-path="url(#clipPath4634)"
     inkscape:connector-curvature="0"
     style="fill:#ffffff"
     transform="translate(-10.2,-95)" /><rect
     style="fill:#ffffff"
     id="rect3819"
     width="3.9000001"
     height="6.6999998"
     x="281"
     y="101.4"
     clip-path="url(#clipPath4630)"
     transform="translate(-10.2,-95.000023)" /></svg>