<svg xmlns="http://www.w3.org/2000/svg" width="483" height="483" viewBox="0 0 482.9 482.9">
  <style>
    .line{fill:#FFFFFF;}
  </style>
  <g opacity=".333">
    <path d="M239.7 260.2h3.2c29.3-.5 53-10.8 70.5-30.5 38.5-43.4 32.1-117.8 31.4-124.9-2.5-53.3-27.7-78.8-48.5-90.7C280.8 5.2 262.7.4 242.5 0h-1.7c-11.1 0-32.9 1.8-53.8 13.7-21 11.9-46.6 37.4-49.1 91.1-.7 7.1-7.1 81.5 31.4 124.9 17.4 19.7 41.1 30 70.4 30.5zm-75.1-152.9c0-.3.1-.6.1-.8 3.3-71.7 54.2-79.4 76-79.4h1.2c27 .6 72.9 11.6 76 79.4 0 .3 0 .6.1.8.1.7 7.1 68.7-24.7 104.5-12.6 14.2-29.4 21.2-51.5 21.4h-1c-22-.2-38.9-7.2-51.4-21.4-31.7-35.6-24.9-103.9-24.8-104.5z" class="line"/>
    <path d="M446.8 383.6v-.3c0-.8-.1-1.6-.1-2.5-.6-19.8-1.9-66.1-45.3-80.9-.3-.1-.7-.2-1-.3-45.1-11.5-82.6-37.5-83-37.8-6.1-4.3-14.5-2.8-18.8 3.3-4.3 6.1-2.8 14.5 3.3 18.8 1.7 1.2 41.5 28.9 91.3 41.7 23.3 8.3 25.9 33.2 26.6 56 0 .9 0 1.7.1 2.5.1 9-.5 22.9-2.1 30.9-16.2 9.2-79.7 41-176.3 41-96.2 0-160.1-31.9-176.4-41.1-1.6-8-2.3-21.9-2.1-30.9 0-.8.1-1.6.1-2.5.7-22.8 3.3-47.7 26.6-56 49.8-12.8 89.6-40.6 91.3-41.7 6.1-4.3 7.6-12.7 3.3-18.8-4.3-6.1-12.7-7.6-18.8-3.3-.4.3-37.7 26.3-83 37.8-.4.1-.7.2-1 .3-43.4 14.9-44.7 61.2-45.3 80.9 0 .9 0 1.7-.1 2.5v.3c-.1 5.2-.2 31.9 5.1 45.3 1 2.6 2.8 4.8 5.2 6.3 3 2 74.9 47.8 195.2 47.8 120.3 0 192.2-45.9 195.2-47.8 2.3-1.5 4.2-3.7 5.2-6.3 5-13.3 4.9-40 4.8-45.2z" class="line"/>
  </g>
  <path d="M454.888 312.442h-9.285v-48.12c0-48.62-39.525-88.146-88.084-88.146-48.56 0-88.088 39.525-88.088 88.084v48.12h-9.285c-15.497 0-28.044 12.61-28.044 28.043v114.433c0 15.496 12.61 28.044 28.043 28.044h170.02c6.21 0 11.29-5.082 11.29-11.293 0-6.21-5.08-11.293-11.292-11.293H260.15c-3.01 0-5.458-2.446-5.458-5.458v-114.37c0-3.012 2.447-5.458 5.458-5.458h194.738c3.01 0 5.458 2.446 5.458 5.458V454.92c0 6.21 5.082 11.292 11.293 11.292 6.21 0 11.29-5.082 11.29-11.293V340.482c0-15.496-12.61-28.044-28.045-28.044zm-31.87-.063H292.02v-48.12c0-36.14 29.362-65.5 65.5-65.5 36.136 0 65.497 29.36 65.497 65.5v48.12z" class="line"/>
  <path d="M384.622 386.41c-6.21 0-11.293 5.08-11.293 11.292 0 8.72-7.09 15.81-15.81 15.81-8.725 0-15.81-7.09-15.81-15.81s7.085-15.81 15.81-15.81c6.21 0 11.29-5.08 11.29-11.292 0-6.21-5.08-11.293-11.294-11.293-21.144 0-38.396 17.253-38.396 38.395 0 21.143 17.253 38.396 38.396 38.396 21.142 0 38.394-17.253 38.394-38.396 0-6.21-5.08-11.292-11.29-11.292z" class="line"/>
</svg>
