<?xml version="1.0" standalone="no"?>
<!DOCTYPE svg PUBLIC "-//W3C//DTD SVG 20010904//EN"
 "http://www.w3.org/TR/2001/REC-SVG-20010904/DTD/svg10.dtd">
<svg version="1.0" xmlns="http://www.w3.org/2000/svg"
 width="507.000000pt" height="99.000000pt" viewBox="0 0 507.000000 99.000000"
 preserveAspectRatio="xMidYMid meet">

<g transform="translate(0.000000,99.000000) scale(0.100000,-0.100000)"
fill="#000000" stroke="none">
<path d="M345 967 c-144 -48 -268 -166 -316 -301 -29 -85 -26 -91 29 -49 106
82 286 143 419 143 92 0 165 -24 348 -115 184 -91 253 -111 346 -102 65 7 153
39 191 70 l27 22 -87 1 c-111 0 -172 23 -290 110 -151 111 -255 177 -317 203
-51 22 -78 26 -185 28 -83 2 -138 -2 -165 -10z"/>
<path d="M1643 770 c-30 -12 -39 -54 -19 -85 20 -31 58 -33 86 -5 32 32 25 66
-17 89 -25 13 -21 13 -50 1z"/>
<path d="M2132 770 c-23 -5 -65 -21 -93 -37 -230 -125 -225 -475 8 -589 73
-36 195 -45 271 -20 51 17 142 79 142 97 0 5 -15 26 -34 47 l-34 37 -24 -21
c-145 -134 -368 -39 -368 156 0 190 206 285 362 167 l35 -27 38 41 37 41 -23
24 c-62 66 -213 106 -317 84z"/>
<path d="M3160 695 l0 -85 -30 0 c-28 0 -30 -2 -30 -40 0 -38 2 -40 30 -40
l30 0 0 -152 c0 -140 2 -156 23 -192 42 -73 144 -98 227 -56 22 11 40 22 40
25 0 2 -8 20 -17 40 -12 26 -21 34 -32 29 -40 -18 -79 -16 -100 5 -19 19 -21
32 -21 161 l0 140 66 0 65 0 -3 38 -3 37 -62 3 -63 3 0 84 0 85 -60 0 -60 0 0
-85z"/>
<path d="M2727 609 c-191 -45 -262 -273 -131 -418 70 -78 186 -103 298 -65 52
18 126 81 126 107 0 26 -92 23 -129 -4 -64 -47 -183 -29 -222 35 -34 57 -36
56 171 56 l190 0 0 54 c0 102 -39 170 -122 209 -62 29 -128 39 -181 26z m122
-104 c26 -13 61 -67 61 -94 0 -7 -42 -11 -131 -11 l-130 0 6 23 c25 82 118
122 194 82z"/>
<path d="M3680 609 c-63 -11 -140 -45 -140 -62 0 -7 10 -25 23 -40 l22 -28 35
18 c19 9 63 19 97 21 56 4 64 2 87 -21 17 -17 26 -37 26 -57 l0 -30 -102 0
c-160 0 -218 -39 -218 -147 0 -101 76 -158 200 -151 51 3 77 9 99 26 l30 22 3
-28 c3 -25 7 -27 56 -30 l52 -3 0 190 c0 110 -4 202 -11 218 -32 84 -131 123
-259 102z m150 -299 c0 -42 -17 -74 -50 -93 -45 -27 -119 -18 -142 17 -14 20
-8 63 10 78 22 21 44 25 120 27 l62 1 0 -30z"/>
<path d="M4299 611 c-20 -4 -52 -18 -72 -30 l-37 -23 0 26 c0 25 -2 26 -60 26
l-60 0 0 -254 0 -253 58 1 57 1 5 172 c4 154 7 175 26 200 43 57 129 62 168 9
19 -25 22 -46 26 -204 l5 -177 55 0 55 0 3 179 c2 174 2 181 -23 231 -37 76
-117 113 -206 96z"/>
<path d="M4792 609 c-42 -7 -122 -38 -141 -55 -3 -3 38 -74 44 -74 1 0 22 9
46 20 64 29 149 27 177 -3 13 -14 22 -36 22 -55 l0 -32 -92 0 c-119 0 -158
-12 -198 -57 -30 -34 -32 -40 -28 -95 7 -98 72 -148 191 -148 51 0 71 5 100
24 l36 25 3 -27 c3 -25 7 -27 56 -30 l52 -3 0 198 c0 175 -2 202 -19 233 -34
64 -139 98 -249 79z m148 -305 c0 -46 -14 -70 -50 -89 -69 -36 -154 -2 -148
59 4 43 52 66 136 66 l62 0 0 -36z"/>
<path d="M165 538 c-27 -16 -74 -48 -104 -71 -52 -40 -53 -42 -48 -83 13 -122
126 -268 256 -332 l75 -37 135 0 c132 0 138 1 204 32 124 59 221 174 261 312
27 92 28 91 -81 136 -53 22 -101 42 -105 43 -4 2 -8 -16 -8 -40 0 -96 -52
-185 -137 -235 -66 -38 -169 -44 -241 -13 -103 45 -172 162 -159 272 3 26 5
48 4 47 -1 0 -24 -14 -52 -31z"/>
<path d="M1610 320 l0 -221 58 3 57 3 3 218 2 217 -60 0 -60 0 0 -220z"/>
</g>
</svg>
