<svg xmlns="http://www.w3.org/2000/svg" width="531.261" height="142.438">
  <path fill="#1e1e1e" d="M78.335 51.791c0 15.75-13.125 28.5-28.75 28.5s-28.125-12.75-28.125-28.5c0-2.612.37-5.15 1.04-7.575-7.25 4-16.875 9.375-22.5 16.375 3.487 24.5 24.5 43.25 49.875 43.25 27 0 49-21.125 50.375-47.75-3.913-1.23-12.75-4.763-22.375-9.8.36 1.788.554 3.65.554 5.55"/>
  <path fill="#1e1e1e" d="M133.71 37.541c-10.725-1.198-18.5-5.112-27.25-11.662-9.125-6.626-15.25-12-28.5-19.376C67.585.628 59.085.128 50.085.003c-11.25-.125-19 3.375-25.25 7C14.585 12.878 9.71 20.128 6.46 25.378 1.86 33.128.423 40.253.397 42.753c5.325-5 23.75-19.125 49.5-19.125 32.5 0 51.5 35.376 87.25 18.75 5.313-2.462 8.575-6.35 8.575-6.35s-2.175 2.613-12.462 1.525m376.85 1.687c-8.4 0-16 2.276-22.625 6.764l5.213 7.537c1.9-1.262 4.125-2.361 6.65-3.261 3.1-1.098 6.074-1.65 8.85-1.65 6.974 0 10.65 3.51 10.65 10.448v1.4h-12.75c-6.725 0-12.063 1.314-15.876 3.927-3.687 2.525-5.487 6.25-5.487 11.4 0 5.212 1.763 9.236 5.4 12.336 3.676 3.113 8.276 4.701 13.626 4.701 5.387 0 9.124-.81 11.96-2.875 2.864-2.087 4.014-3.775 4.014-3.775v6.875h11.526v-34.5c0-6.7-1.939-11.625-5.764-14.625l-.012-.026c-3.925-3.112-9.1-4.676-15.375-4.676zm-2.363 29.264h10.963v4.049c-.003 3.195-1.217 5.804-3.625 7.738-2.313 1.863-5.026 2.801-8.05 2.801-2.988 0-5.362-.617-7.075-1.838-1.837-1.338-2.764-3.237-2.764-5.662 0-3.237 1.826-7.088 10.551-7.088zM393.835 39.166c-8.4 0-16 2.276-22.625 6.764l5.213 7.537c1.9-1.262 4.124-2.364 6.65-3.264 3.1-1.098 6.074-1.648 8.85-1.648 6.974 0 10.65 3.511 10.65 10.45v1.4h-12.75c-6.726 0-12.077 1.31-15.877 3.923-3.687 2.525-5.486 6.25-5.486 11.4 0 5.213 1.762 9.239 5.4 12.339 3.675 3.113 8.275 4.699 13.625 4.699 5.387 0 9.124-.81 11.961-2.875 2.863-2.087 4.014-3.776 4.014-3.776v6.875h11.525v-34.5c0-6.7-1.938-11.625-5.775-14.625-3.913-3.112-9.088-4.673-15.375-4.673v-.026zm-2.324 29.338h10.949v4.049c-.003 3.195-1.22 5.804-3.611 7.738-2.313 1.863-5.026 2.801-8.051 2.801-2.988 0-5.363-.617-7.076-1.838-1.837-1.338-2.776-3.237-2.776-5.662 0-3.237 1.84-7.088 10.565-7.088zM232.46 34.416c7.325 0 13.625 2.888 18.75 8.6l7.95-9.012c-7.5-8.025-16.5-11.925-27.375-11.925-10 0-18.625 3.425-25.5 10.175-6.9 6.737-10.412 15.25-10.412 25.375 0 10.087 3.424 18.5 10.2 25.125 6.774 6.612 15.5 9.962 26 9.962 10.062 0 19-4.1 26.624-12.2l-8.15-8.4c-5.062 5.688-11.512 8.563-19.25 8.563-6.05 0-11.262-2.163-15.5-6.413-4.25-4.25-6.412-9.937-6.412-16.875 0-6.975 2.287-12.625 6.8-16.75 4.5-4.125 9.975-6.2 16.25-6.2m59.025 4.725c-7.125 0-13.375 2.438-18.625 7.25-5.275 4.862-7.838 11.225-7.838 19.5s2.525 14.625 7.7 19.625c5.124 4.838 11.724 7.287 19.624 7.287 7.438 0 14-2.487 19.75-7.437 0 0 3.69-3.112 4.54-7.125l-11.913-.02c-1.388 3.186-7.2 4.801-12.388 4.801-3.6 0-6.875-1.048-9.762-3.115-2.963-2.122-4.713-4.884-5.238-8.25l-.245-1.61h40v-6.724c0-7.575-2.413-13.375-7.388-17.625-4.974-4.29-11.112-6.463-18.25-6.463l.033-.094zm.254 9.787c3.325 0 6.211 1 8.574 2.963 2.387 2.012 3.776 4.863 4.15 8.463l.157 1.549H277.47l-.01-.012.215-1.588c.465-3.5 2.125-6.311 4.925-8.361 2.75-2 5.814-3.014 9.114-3.014zm59.496 33.338c-1.875 0-3.575-.78-4.875-2.237-1.337-1.438-2.013-3.426-2.013-5.888V48.291h13.25V40.13h-13.25v-18h-12.5v18h-6.4v8.162h6.4v26.625c0 5.625 1.638 9.912 4.988 13.125 3.35 3.188 7.5 4.8 12.35 4.8 4.575 0 9.025-1.825 13.25-5.412l-4.225-7.926c-1.975 1.888-4.287 2.85-6.938 2.85M456.21 39.166c-5.425 0-7.775.82-11.563 2.913-3.225 1.787-5.387 3.825-5.387 3.825V40.08h-12.438v52.875h12.438V62.827c0-4.637 1.288-8.237 3.837-10.712 2.525-2.45 5.538-3.688 8.95-3.688 4.863 0 10.65 2.438 10.65 14v30.5h12.438V60.053c0-6.362-1.825-11.512-5.438-15.25-3.662-3.8-8.075-5.65-13.5-5.65M168.71 92.98h12.325V47.23H168.71v45.75zm6.25-58.689c1.7 0 3.112-.575 4.3-1.75 1.186-1.18 1.75-2.6 1.75-4.313 0-1.725-.57-3.125-1.75-4.3-1.17-1.17-2.575-1.737-4.3-1.737-1.725 0-3.138.57-4.3 1.738-1.17 1.176-1.738 2.587-1.738 4.3 0 1.725.565 3.125 1.725 4.3 1.187 1.176 2.6 1.75 4.313 1.75"/>
  <path d="M182.61 127.793q-1.493-.912-3.068-1.41-1.547-.497-2.735-.497-1.327 0-2.1.497-.774.498-.774 1.382 0 .802.525 1.354.552.525 1.354.884.829.332 2.238.747 1.962.58 3.205 1.16 1.272.58 2.156 1.713.884 1.133.884 2.985 0 1.768-.967 3.095-.94 1.298-2.625 1.99-1.658.69-3.814.69-2.265 0-4.42-.829-2.156-.857-3.759-2.266l1.547-3.15q1.465 1.354 3.289 2.128 1.824.773 3.399.773 1.547 0 2.431-.58.885-.608.885-1.63 0-.83-.553-1.354-.525-.553-1.354-.884-.829-.332-2.266-.747-1.962-.58-3.205-1.133-1.244-.552-2.128-1.658-.884-1.132-.884-2.956 0-1.686.884-2.93.912-1.27 2.542-1.961 1.658-.691 3.814-.691 1.879 0 3.702.553 1.852.552 3.289 1.492l-1.492 3.233zm5.22-4.974h14.175v3.233h-10.473v4.78h9.396v3.234h-9.396v4.863h10.805v3.233H187.83v-19.343zm18.242 0h14.176v3.233h-10.473v4.78h9.395v3.234h-9.395v4.863h10.804v3.233h-14.507v-19.343zm22.833 0h15.778v3.288h-6.024v16.055h-3.73v-16.055h-6.024v-3.288zm18.401 0h3.702v8.262h9.644v-8.262h3.703v19.343h-3.703v-7.848h-9.644v7.848h-3.702v-19.343zm21.804 0h3.703v19.343h-3.703v-19.343zm21.958 0h3.593v19.343h-3.51l-9.948-13.32v13.32h-3.62v-19.343h3.51l9.975 13.347v-13.347zm21.445 9.727h3.233v7.35q-1.52 1.133-3.592 1.852-2.072.69-4.062.69-2.846 0-5.195-1.326-2.321-1.326-3.675-3.592-1.354-2.294-1.354-5.057 0-2.764 1.381-5.002 1.382-2.266 3.759-3.564 2.404-1.327 5.305-1.327 2.073 0 4.09.746t3.482 2.045l-2.1 2.736q-1.106-1.05-2.57-1.63-1.437-.58-2.902-.58-1.824 0-3.371.883-1.52.857-2.404 2.377-.884 1.52-.884 3.316 0 1.824.884 3.343.912 1.52 2.431 2.404 1.52.885 3.372.885.995 0 2.072-.304 1.106-.332 2.1-.912v-5.333zm19.65-4.753q-1.492-.912-3.067-1.41-1.548-.497-2.736-.497-1.326 0-2.1.497-.774.498-.774 1.382 0 .802.525 1.354.553.525 1.354.884.83.332 2.239.747 1.962.58 3.205 1.16 1.271.58 2.155 1.713.885 1.133.885 2.985 0 1.768-.967 3.095-.94 1.298-2.626 1.99-1.658.69-3.813.69-2.266 0-4.421-.829-2.156-.857-3.758-2.266l1.547-3.15q1.465 1.354 3.288 2.128 1.824.773 3.4.773 1.547 0 2.431-.58.884-.608.884-1.63 0-.83-.552-1.354-.525-.553-1.354-.884-.83-.332-2.266-.747-1.962-.58-3.206-1.133-1.243-.552-2.128-1.658-.884-1.132-.884-2.956 0-1.686.884-2.93.912-1.27 2.543-1.961 1.658-.691 3.813-.691 1.88 0 3.703.553 1.851.552 3.288 1.492l-1.492 3.233zm20.007-4.974q2.902 0 5.196 1.243 2.293 1.216 3.592 3.427 1.299 2.21 1.299 5.001 0 2.791-1.326 5.002-1.3 2.183-3.62 3.427-2.322 1.243-5.278 1.243h-7.903v-19.343h8.04zm.084 16.082q1.768 0 3.178-.801 1.436-.829 2.238-2.266.801-1.465.801-3.316 0-1.851-.829-3.316-.829-1.492-2.293-2.293-1.437-.83-3.233-.83h-4.284v12.822h4.422zm13.248-16.082h3.703v19.343h-3.703v-19.343zm8.474 0h13.346l-.027 3.233h-9.617v5.223h8.76v3.233h-8.76v7.654h-3.702v-19.343zm16.137 0h13.347l-.028 3.233h-9.616v5.223h8.76v3.233h-8.76v7.654h-3.703v-19.343zm16.137 0h14.176v3.233h-10.473v4.78h9.395v3.234h-9.395v4.863h10.805v3.233H406.25v-19.343zm30.346 19.343l-3.344-5.72q-.221.028-.69.028h-4.367v5.692h-3.703v-19.343h8.07q3.757 0 5.802 1.74 2.045 1.742 2.045 4.92 0 2.265-.995 3.868-.967 1.603-2.846 2.404l4.256 6.411h-4.228zm-8.4-8.953h4.365q2.1 0 3.206-.912 1.105-.912 1.105-2.708 0-1.769-1.105-2.653-1.106-.884-3.206-.884h-4.366v7.157zm16.266-10.39h14.175v3.233h-10.473v4.78h9.396v3.234h-9.396v4.863h10.805v3.233h-14.507v-19.343zm31.727 0h3.592v19.343h-3.51l-9.947-13.32v13.32h-3.62v-19.343h3.51l9.975 13.347v-13.347zm6.164 0h15.778v3.288h-6.024v16.055h-3.73v-16.055h-6.024v-3.288zm18.4 0h3.703v16h8.345v3.343h-12.048v-19.343zm30.507 0l-7.046 13.015v6.328h-3.703v-6.19L513.3 122.82h3.758l5.278 9.091 5.195-9.091h3.73z"/>
  <path fill="#1e1e1e" d="M168.71 106.602h362.551v2.249H168.71z"/>
</svg>
