<svg xmlns="http://www.w3.org/2000/svg" viewBox="0 0 531.496 103.737">
  <g fill="#ffffff">
    <path d="M78.375 52c0 15.75-13.125 28.5-28.75 28.5S21.5 67.75 21.5 52c0-2.612.37-5.15 1.04-7.575-7.25 4-16.875 9.375-22.5 16.375 3.487 24.5 24.5 43.25 49.875 43.25 27 0 49-21.125 50.375-47.75-3.913-1.23-12.75-4.763-22.375-9.8.36 1.788.554 3.65.554 5.55"/>
    <path d="M133.75 37.75c-10.725-1.198-18.5-5.112-27.25-11.662-9.125-6.626-15.25-12-28.5-19.376C67.625.837 59.125.337 50.125.212c-11.25-.125-19 3.375-25.25 7C14.625 13.087 9.75 20.337 6.5 25.587 1.9 33.337.463 40.462.437 42.962c5.325-5 23.75-19.125 49.5-19.125 32.5 0 51.5 35.376 87.25 18.75 5.313-2.462 8.575-6.35 8.575-6.35s-2.175 2.613-12.462 1.525m99.2-3.137c7.325 0 13.625 2.888 18.75 8.6l7.95-9.012c-7.5-8.025-16.5-11.925-27.375-11.925-10 0-18.625 3.425-25.5 10.175-6.9 6.737-10.412 15.25-10.412 25.375 0 10.087 3.424 18.5 10.2 25.125 6.774 6.612 15.5 9.962 26 9.962 10.062 0 19-4.1 26.624-12.2l-8.15-8.4c-5.062 5.688-11.512 8.563-19.25 8.563-6.05 0-11.262-2.163-15.5-6.413-4.25-4.25-6.412-9.937-6.412-16.875 0-6.975 2.287-12.625 6.8-16.75 4.5-4.125 9.975-6.2 16.25-6.2M277.5 62.125l.215-1.587c.465-3.5 2.125-6.313 4.925-8.363 2.75-2 5.813-3.013 9.113-3.013 3.325 0 6.212 1 8.575 2.963 2.387 2.012 3.775 4.862 4.15 8.462l.157 1.55H277.51zm14-22.75c-7.125 0-13.375 2.438-18.625 7.25-5.275 4.862-7.838 11.225-7.838 19.5s2.526 14.625 7.7 19.625c5.125 4.838 11.725 7.287 19.625 7.287 7.438 0 14-2.487 19.75-7.437 0 0 3.688-3.112 4.538-7.125l-11.912-.02c-1.388 3.186-7.2 4.8-12.388 4.8-3.6 0-6.875-1.047-9.762-3.114-2.963-2.122-4.713-4.884-5.238-8.25l-.245-1.61h40v-6.724c0-7.575-2.413-13.375-7.388-17.625-4.974-4.29-11.112-6.463-18.25-6.463M351.25 82.5c-1.875 0-3.575-.78-4.875-2.237-1.337-1.438-2.013-3.426-2.013-5.888V48.5h13.25v-8.162h-13.25v-18h-12.5v18h-6.4V48.5h6.4v26.625c0 5.625 1.638 9.912 4.988 13.125 3.35 3.188 7.5 4.8 12.35 4.8 4.575 0 9.025-1.825 13.25-5.412l-4.225-7.926c-1.975 1.888-4.287 2.85-6.938 2.85M402.5 72.75c0 3.2-1.218 5.813-3.612 7.75-2.313 1.863-5.025 2.8-8.05 2.8-2.988 0-5.363-.616-7.076-1.837-1.837-1.338-2.775-3.238-2.775-5.663 0-3.237 1.838-7.088 10.563-7.088h10.95v4.05zm-8.625-33.375c-8.4 0-16 2.275-22.625 6.763l5.213 7.537c1.9-1.262 4.124-2.362 6.65-3.262 3.1-1.098 6.074-1.65 8.85-1.65 6.974 0 10.65 3.512 10.65 10.45v1.4h-12.75c-6.726 0-12.076 1.312-15.876 3.925-3.687 2.525-5.487 6.25-5.487 11.4 0 5.212 1.762 9.237 5.4 12.337 3.675 3.113 8.275 4.7 13.625 4.7 5.387 0 9.125-.81 11.962-2.875 2.863-2.087 4.013-3.775 4.013-3.775V93.2h11.525V58.7c0-6.7-1.938-11.625-5.775-14.625-3.913-3.112-9.088-4.675-15.375-4.675m62.375-.025c-5.425 0-7.775.82-11.563 2.913-3.225 1.787-5.387 3.825-5.387 3.825v-5.825h-12.438v52.875H439.3V63.036c0-4.637 1.288-8.237 3.837-10.712 2.525-2.45 5.538-3.688 8.95-3.688 4.863 0 10.65 2.438 10.65 14v30.5h12.438V60.262c0-6.362-1.825-11.512-5.438-15.25-3.662-3.8-8.075-5.65-13.5-5.65M168.75 93.188h12.325v-45.75H168.75v45.75zM175 34.5c1.7 0 3.112-.575 4.3-1.75 1.186-1.18 1.75-2.6 1.75-4.313 0-1.725-.57-3.125-1.75-4.3-1.17-1.17-2.575-1.737-4.3-1.737s-3.138.57-4.3 1.738c-1.17 1.176-1.738 2.587-1.738 4.3 0 1.725.565 3.125 1.725 4.3 1.187 1.176 2.6 1.75 4.313 1.75M518.75 72.75c0 3.2-1.214 5.813-3.625 7.75-2.313 1.863-5.025 2.8-8.05 2.8-2.987 0-5.362-.616-7.075-1.837-1.837-1.338-2.763-3.238-2.763-5.663 0-3.237 1.825-7.088 10.55-7.088h10.963v4.05zm6.775-28.625c-3.925-3.112-9.1-4.675-15.375-4.675-8.4 0-16 2.275-22.625 6.763l5.213 7.537c1.9-1.262 4.124-2.362 6.65-3.262 3.1-1.098 6.074-1.65 8.85-1.65 6.974 0 10.65 3.512 10.65 10.45v1.4h-12.75c-6.726 0-12.063 1.312-15.876 3.925-3.687 2.525-5.487 6.25-5.487 11.4 0 5.212 1.762 9.237 5.4 12.337 3.675 3.113 8.275 4.7 13.625 4.7 5.387 0 9.125-.81 11.962-2.875 2.863-2.087 4.013-3.775 4.013-3.775v6.875H531.3v-34.5c0-6.7-1.938-11.625-5.763-14.625"/>
  </g>
</svg>
